HIERARCHY
ROOT hip
{
	OFFSET 0.000000 0.000000 0.000000
	CHANNELS 6  Xposition Yposition Zposition Xrotation Zrotation Yrotation
	JOINT abdomen
	{
		OFFSET 0.000000 3.402643 0.000000
			CHANNELS 3 Xrotation Zrotation Yrotation
		JOINT chest
		{
			OFFSET 0.000000 8.438565 -0.680529
				CHANNELS 3 Xrotation Zrotation Yrotation
			JOINT neck
			{
				OFFSET 0.000000 10.207942 -0.272212
					CHANNELS 3 Xrotation Zrotation Yrotation
				JOINT head
				{
					OFFSET 0.000000 3.130431 0.000000
						CHANNELS 3 Xrotation Zrotation Yrotation
					End Site
					{
						OFFSET 0.000000 3.130435 0.000000
					}
				}
			}
			JOINT lCollar
			{
				OFFSET 3.470700 6.669187 -0.816635
					CHANNELS 3 Yrotation Zrotation Xrotation
				JOINT lShldr
				{
					OFFSET 3.198488 0.000000 0.000000
						CHANNELS 3 Zrotation Yrotation Xrotation
					JOINT lForeArm
					{
						OFFSET 10.139888 0.000000 0.000000
							CHANNELS 3 Yrotation Zrotation Xrotation
						JOINT lHand
						{
							OFFSET 8.370511 0.000000 0.000000
								CHANNELS 3 Zrotation Yrotation Xrotation
							End Site
							{
								OFFSET 4.083176 0.000000 0.000000
							}
						}
					}
				}
			}
			JOINT rCollar
			{
				OFFSET -3.470700 6.669187 -0.816635
					CHANNELS 3 Yrotation Zrotation Xrotation
				JOINT rShldr
				{
					OFFSET -3.198488 0.000000 0.000000
						CHANNELS 3 Zrotation Yrotation Xrotation
					JOINT rForeArm
					{
						OFFSET -10.139888 0.000000 0.000000
							CHANNELS 3 Yrotation Zrotation Xrotation
						JOINT rHand
						{
							OFFSET -8.370511 0.000000 0.000000
								CHANNELS 3 Zrotation Yrotation Xrotation
							End Site
							{
								OFFSET -4.083176 0.000000 0.000000
							}
						}
					}
				}
			}
		}
	}
	JOINT lThigh 
	{
		OFFSET 5.308129 -1.633274 1.361059
			CHANNELS 3 Xrotation Zrotation Yrotation
		JOINT lShin
		{
			OFFSET -2.041588 -20.007561 0.000000
				CHANNELS 3 Xrotation Zrotation Yrotation
			JOINT lFoot
			{
				OFFSET 0.000000 -19.190928 -1.224953
					CHANNELS 3 Xrotation Yrotation Zrotation
				End Site
				{
					OFFSET 0.000000 -2.449906 4.627600
				}
			}
		}
	}
	JOINT rThigh
	{
		OFFSET -5.308129 -1.633274 1.361059
			CHANNELS 3 Xrotation Zrotation Yrotation
		JOINT rShin
		{
			OFFSET 2.041588 -20.007561 0.000000
				CHANNELS 3 Xrotation Zrotation Yrotation
			JOINT rFoot
			{
				OFFSET 0.000000 -19.190928 -1.224953
					CHANNELS 3 Xrotation Yrotation Zrotation
				End Site
				{
					OFFSET 0.000000 -2.449906 4.627600
				}
			}
		}
	}
}
MOTION
Frames: 13
Frame Time: 0.032000
678.474854 50.064075 3663.342773 22.56 -8.16 14.98 1.57 0.61 16.17 0.67 0.26 6.93 -5.57 -3.14 -5.98 9.88 -3.40 -6.17 -2.13 2.49 -0.09 -56.96 51.36 23.94 -112.97 2.22 25.47 11.36 16.61 3.34 4.14 -7.33 -0.06 75.50 11.60 22.47 115.72 -2.60 31.35 -32.50 8.59 -5.66 -60.72 0.98 -3.24 30.08 -1.07 -2.50 23.26 -0.94 -11.94 -9.05 -3.07 -5.44 68.73 -1.14 3.23 -0.00 -0.00 0.00 
680.796021 48.756943 3670.907227 20.96 -8.07 15.34 1.66 -0.17 13.13 0.71 -0.07 5.63 -3.79 -2.24 -4.73 8.86 -1.39 -4.79 -0.98 0.60 -0.04 -63.85 45.08 17.55 -112.27 2.23 26.69 12.65 15.89 3.54 4.46 -6.75 -0.05 77.25 4.79 23.29 108.24 -2.63 31.43 -32.95 7.64 -5.13 -55.57 2.17 -0.42 26.93 -1.07 -2.45 23.52 -1.06 -11.99 -11.33 -3.05 -7.35 86.33 -2.50 3.35 -0.00 -0.00 0.00 
685.704773 46.873959 3687.208496 20.43 -7.90 15.58 1.06 -1.31 8.51 0.44 -0.56 3.65 -2.56 -1.32 -2.57 7.29 0.38 -2.51 1.09 -3.11 -0.12 -68.74 33.01 14.24 -110.90 2.49 29.17 13.15 15.73 3.58 4.90 -5.80 -0.03 78.63 -4.61 26.00 98.54 -2.59 29.10 -46.14 -1.42 1.16 -51.55 4.23 3.92 35.83 -1.01 -2.74 12.39 -7.29 -10.73 -19.21 -6.19 -8.76 105.78 -4.08 3.50 -0.00 -0.00 0.00 
684.970520 45.486889 3684.221436 21.83 -3.83 15.61 3.04 -4.32 1.28 1.31 -1.84 0.55 -5.61 -0.11 -0.24 5.32 2.40 -0.21 1.60 -5.67 -0.12 -73.26 12.03 12.22 -108.82 2.64 32.24 13.76 14.94 3.51 5.20 -5.13 -0.06 80.12 -12.82 15.51 87.89 -2.92 33.69 -37.02 10.27 -7.79 -47.37 -0.59 6.61 47.03 -0.70 -3.04 -2.75 -3.55 -12.23 -36.25 -12.66 -5.74 120.87 -4.72 2.47 -0.00 -0.00 0.00 
687.007507 45.705982 3690.847168 22.44 -3.80 15.72 4.01 -3.11 -5.01 1.71 -1.33 -2.14 -5.94 -0.05 1.69 5.03 3.91 1.60 0.21 -4.52 -0.16 -78.99 -4.73 9.61 -108.41 3.23 40.37 13.60 13.23 3.06 5.18 -5.24 -0.05 77.04 -23.60 11.36 85.25 -3.01 34.71 -34.36 9.75 -6.86 -39.29 -1.93 3.62 48.14 -0.56 -3.15 -6.22 -2.81 -12.47 -54.37 -12.87 -4.14 123.52 -4.81 2.37 -0.00 -0.00 0.00 
689.423401 47.182610 3698.479736 23.02 -6.08 15.81 3.91 1.15 -10.79 1.68 0.49 -4.62 -5.69 -0.16 5.09 6.28 1.28 5.10 1.37 -3.18 -0.10 -84.53 -14.44 7.55 -111.86 3.19 40.31 15.38 14.43 3.85 4.20 -6.33 -0.06 66.73 -32.40 18.08 86.83 -2.84 33.41 -33.38 10.54 -6.95 -28.86 0.45 0.47 43.74 -0.27 -3.23 0.28 -4.56 -12.21 -67.81 -10.58 -5.08 114.77 -4.42 3.22 -0.00 -0.00 0.00 
694.799927 48.609650 3715.465332 23.62 -8.21 15.90 3.47 4.03 -14.31 1.48 1.73 -6.13 -6.39 2.03 7.47 7.07 -2.00 7.79 2.85 -1.41 -0.11 -86.63 -19.04 8.60 -116.51 3.18 39.58 12.51 14.33 3.12 4.73 -8.89 -0.07 58.65 -41.65 24.96 88.39 -2.29 25.50 -32.67 11.56 -7.45 -19.91 4.16 0.25 37.35 -0.80 -2.46 10.39 -7.48 -10.72 -74.89 -6.23 -3.06 102.18 -3.69 3.42 -0.00 -0.00 0.00 
690.104309 49.114445 3702.340332 24.95 -10.32 15.91 3.81 6.57 -15.66 1.63 2.81 -6.71 -8.25 4.19 7.46 8.01 -4.88 8.15 3.00 -0.57 -0.15 -86.87 -22.32 11.05 -120.79 3.28 40.86 15.69 17.80 4.87 5.85 -12.11 -0.01 53.88 -50.11 28.42 89.38 -1.53 16.59 -29.71 14.28 -8.13 -15.18 7.03 1.44 34.09 -1.03 -2.49 15.76 -5.24 -10.61 -80.64 -2.69 0.23 93.53 -3.12 3.71 -0.00 -0.00 0.00 
696.037537 50.482269 3721.285645 25.53 -11.17 15.45 2.94 8.16 -15.27 1.25 3.49 -6.54 -7.22 4.15 8.32 7.88 -7.99 9.16 3.33 -0.53 -0.15 -85.15 -18.82 10.52 -122.37 3.17 40.70 19.78 19.42 6.71 7.78 -13.45 -0.03 53.22 -59.88 27.40 91.77 -2.28 25.07 -36.74 17.71 -13.02 -9.27 8.36 4.84 36.12 -0.76 -2.84 24.34 -3.27 -10.84 -77.04 -1.43 1.25 68.32 -1.48 3.72 -0.00 -0.00 0.00 
700.798279 50.644363 3737.465820 25.60 -8.99 14.60 3.71 8.90 -15.08 1.59 3.81 -6.46 -8.03 4.08 8.57 7.95 -9.77 9.26 3.68 -1.20 -0.10 -84.43 -15.00 8.86 -119.69 3.39 43.79 13.98 12.77 3.14 7.52 -12.85 -0.12 62.43 -61.22 14.70 92.38 -2.79 31.31 -37.68 20.57 -15.29 -10.16 6.18 3.45 55.82 0.08 -3.27 28.89 -5.63 -9.30 -69.07 -3.39 1.09 44.16 -0.06 2.84 -0.00 -0.00 0.00 
699.608093 49.685848 3736.071289 24.35 -7.26 13.78 4.09 9.45 -12.49 1.75 4.05 -5.35 -6.45 3.00 7.40 7.46 -12.02 8.18 2.61 -1.35 -0.11 -84.89 -8.64 10.74 -113.89 3.62 46.09 13.62 14.74 3.50 5.91 -9.65 -0.09 68.11 -53.16 5.97 93.41 -2.63 30.87 -33.30 17.55 -11.36 -12.77 3.60 3.79 80.74 1.37 -3.89 31.30 -4.00 -10.18 -61.23 -4.54 -1.53 33.89 0.90 2.19 -0.00 -0.00 0.00 
701.248230 48.107819 3744.269531 22.84 -7.92 12.78 3.37 11.23 -7.78 1.44 4.82 -3.32 -3.93 1.08 6.03 7.35 -13.87 6.57 1.92 -1.93 -0.11 -86.05 -1.07 13.17 -105.78 3.41 42.25 12.05 17.71 3.65 4.55 -5.35 -0.11 66.00 -40.65 4.81 94.27 -2.49 28.42 -28.38 10.76 -5.95 -17.62 4.49 6.93 103.09 2.57 -3.76 32.02 -1.81 -11.12 -54.37 -3.20 -7.43 36.95 0.52 2.28 -0.00 -0.00 0.00 
704.552368 46.161922 3760.588623 22.57 -10.57 11.62 3.04 13.49 -1.22 1.31 5.78 -0.52 -5.20 -0.66 4.95 6.70 -14.97 5.45 2.03 -3.29 -0.06 -86.05 6.73 13.61 -97.08 3.14 39.29 13.81 17.62 4.28 3.92 -1.58 -0.08 65.12 -21.10 5.72 95.30 -2.39 27.70 -27.10 11.82 -6.17 -31.75 8.32 7.91 122.22 3.87 -3.41 36.90 -7.42 -7.03 -49.40 0.50 -9.94 45.95 0.33 2.71 -0.00 -0.00 0.00 
